<?xml version="1.0" encoding="UTF-8"?>
<svg id="Layer_2" data-name="Layer 2" xmlns="http://www.w3.org/2000/svg" viewBox="0 0 263.21 83.34">
  <defs>
    <style>
      .cls-1 {
        fill: #2b3990;
      }

      .cls-1, .cls-2 {
        stroke-width: 0px;
      }

      .cls-2 {
        fill: #2e3192;
      }

      .cls-3 {
        fill: none;
        stroke: #5e4ea0;
        stroke-miterlimit: 10;
        stroke-width: 7px;
      }
    </style>
  </defs>
  <g id="Text">
    <g>
      <path class="cls-3" d="m130.1,79.84h2.87l99.67-.04c60.93-43.49-.03-76.3-.03-76.3l-99.67.04h-2.68s-99.67,0-99.67,0c0,0-60.95,32.83,0,76.3h99.67"/>
      <text/>
      <path class="cls-1" d="m36.98,60.76H15.63v-9.43h3v-20.53h-3.09v-9.43h21.44v9.43h-3.12v20.53h3.12v9.43Zm24.5,0h-20.39v-9.43h1.9l-8.64-11.21,10.03-9.32h-3.2v-9.43h19.4v9.43h-3.06l-8.04,7.48,10.05,13.06h1.95v9.43Z"/>
      <path class="cls-1" d="m74,60.76h-8.86v-12.63h8.86c1.06,3.44,3.05,5.15,5.98,5.15,2.11,0,3.17-.85,3.17-2.55,0-.89-.37-1.62-1.1-2.21-.79-.64-2.46-1.53-5.01-2.66-3.21-1.45-5.57-2.71-7.08-3.77-1.42-.96-2.62-2.29-3.62-3.99-1-1.68-1.5-3.54-1.5-5.58,0-3.66,1.19-6.52,3.57-8.58,2.36-2.06,5.27-3.09,8.72-3.09s6.38.98,8.78,2.95v-2.44h8.92v11.21h-8.81c-1.08-3.1-2.98-4.64-5.72-4.64-1.93,0-2.89.82-2.89,2.46,0,.79.27,1.39.82,1.78.53.42,2.24,1.33,5.13,2.75,3.87,1.93,6.46,3.33,7.76,4.22.66.43,1.34,1.04,2.03,1.83.69.78,1.26,1.59,1.71,2.42,1.04,1.85,1.56,3.85,1.56,6,0,3.3-1.23,6.1-3.68,8.38-2.45,2.32-5.55,3.48-9.29,3.48-3.47,0-6.62-1.03-9.43-3.09v2.58Z"/>
      <path class="cls-1" d="m103.48,30.8h-3.03v-9.43h20.16v9.43h-1.87v13.28c0,3.17.3,5.33.91,6.49.6,1.13,1.69,1.7,3.26,1.7,1.3,0,2.25-.48,2.83-1.44.58-.94.88-2.88.88-5.81v-14.22h-1.98v-9.43h14.81v9.43h-3.12v14.27c0,3.64-.53,6.63-1.59,8.95-1.06,2.3-2.81,4.11-5.27,5.41s-5.48,1.95-9.06,1.95c-2.89,0-5.45-.35-7.67-1.05-2.27-.68-4.06-1.72-5.38-3.12-1.32-1.38-2.29-3.05-2.92-5.01-.64-1.91-.96-4.83-.96-8.78v-12.63Z"/>
      <path class="cls-2" d="m145.32,66.25h-7.29c-2.03,0-3.68-.53-3.68-1.18v-4.9c0-.65,1.65-1.18,3.68-1.18h5.17m7.18,0h17.91c2.03,0,3.68.53,3.68,1.18v4.9c0,.65-1.65,1.18-3.68,1.18h-15.69"/>
      <path class="cls-2" d="m169.64,47.39l10.2-.76c.17,4.19,2.12,6.29,5.86,6.29,1.62,0,2.83-.44,3.62-1.33.77-.89,1.16-1.96,1.16-3.23,0-3.21-2.14-4.89-6.43-5.04v-6.4c1.32,0,2.57-.39,3.74-1.16,1.15-.75,1.73-1.88,1.73-3.37,0-1.21-.38-2.18-1.13-2.92-.77-.72-1.79-1.08-3.06-1.08-2.7,0-4.15,1.49-4.36,4.47l-10.65-.57c.23-3.93,1.76-6.86,4.59-8.81,2.81-1.94,6.66-2.92,11.53-2.92,5.19,0,9.08,1.06,11.67,3.17,2.59,2.13,3.88,4.76,3.88,7.87,0,1.87-.55,3.53-1.64,4.98-1.09,1.47-2.58,2.49-4.45,3.06,2.36.51,4.2,1.6,5.52,3.26,1.32,1.66,1.98,3.67,1.98,6.03,0,3.78-1.57,6.75-4.7,8.92-3.13,2.17-7.26,3.26-12.38,3.26s-9.19-1.12-12.12-3.37c-2.89-2.23-4.41-5.68-4.56-10.37Z"/>
      <path class="cls-2" d="m213,43.57v-7.01m0,0v-5.76h-3.09v-9.43h18.86c4.3,0,7.82.26,10.54.79,2.74.53,5.31,1.61,7.73,3.26,2.4,1.66,4.29,3.91,5.66,6.74.68,1.36,1.2,2.81,1.56,4.36.36,1.55.54,3.17.54,4.87,0,3.42-.73,6.53-2.18,9.35-1.43,2.79-3.26,4.94-5.47,6.43-2.15,1.49-4.51,2.46-7.08,2.92-2.55.45-6.5.68-11.84.68h-18.32v-9.43h3.09v-7.76m15.24-12.77v20.53h1.44c3.59,0,5.92-.95,7-2.86,1.06-1.91,1.59-4.3,1.59-7.19,0-1.74-.23-3.46-.68-5.15-.47-1.7-1.3-3.01-2.49-3.94-1.17-.92-3.27-1.39-6.29-1.39h-.57Z"/>
    </g>
  </g>
</svg>