<?xml version="1.0" standalone="no"?>
<!DOCTYPE svg PUBLIC "-//W3C//DTD SVG 20010904//EN"
 "http://www.w3.org/TR/2001/REC-SVG-20010904/DTD/svg10.dtd">
<svg version="1.0" xmlns="http://www.w3.org/2000/svg"
 width="502.000000pt" height="497.000000pt" viewBox="0 0 502.000000 497.000000"
 preserveAspectRatio="xMidYMid meet">

<g transform="translate(0.000000,497.000000) scale(0.100000,-0.100000)"
fill="#000000" stroke="none">
<path d="M253 4714 c-37 -18 -67 -62 -78 -111 -7 -36 19 -107 52 -135 11 -10
163 -74 339 -144 175 -69 320 -127 322 -129 2 -2 37 -187 79 -412 300 -1638
364 -1975 378 -2003 22 -42 69 -68 138 -76 36 -4 57 -11 54 -18 -2 -6 -42
-116 -87 -245 -83 -232 -84 -233 -69 -274 22 -63 64 -87 156 -87 l74 0 -25
-33 c-100 -131 -113 -325 -34 -481 29 -56 112 -141 173 -176 273 -156 614 10
668 325 19 109 -13 236 -85 338 l-19 27 487 0 487 0 -21 -23 c-28 -30 -68
-112 -82 -170 -7 -27 -11 -85 -8 -135 3 -72 10 -99 36 -155 93 -200 309 -306
517 -252 226 59 375 283 336 504 -12 66 -51 159 -87 208 l-16 23 83 0 c100 0
141 20 165 77 21 50 10 99 -31 140 l-33 33 -1222 0 c-974 0 -1221 3 -1218 13
3 6 31 86 63 177 32 91 62 170 67 175 6 7 414 12 1168 15 l1159 5 30 29 c17
16 37 48 46 70 18 49 596 1858 620 1940 16 54 16 61 0 102 -19 51 -63 91 -108
99 -27 4 -964 45 -2550 112 -404 17 -409 17 -445 -2 -109 -59 -110 -211 -2
-266 31 -16 171 -23 1215 -68 649 -28 1257 -54 1350 -57 94 -4 175 -9 181 -13
8 -4 -76 -279 -251 -826 l-262 -820 -1181 -3 -1182 -2 -5 22 c-3 13 -43 235
-90 493 -47 259 -117 639 -155 845 -38 206 -94 512 -125 679 -31 167 -62 316
-70 332 -8 15 -27 36 -42 47 -16 10 -190 82 -389 160 -378 149 -408 157 -471
126z m1772 -3753 c125 -57 159 -211 68 -312 -151 -167 -420 16 -322 218 47 96
159 138 254 94z m1650 0 c78 -36 115 -95 115 -182 0 -93 -58 -166 -151 -189
-152 -38 -285 121 -224 268 44 103 160 149 260 103z"/>
</g>
</svg>
