<?xml version="1.0" encoding="utf-8"?>
<!-- Generator: Adobe Illustrator 28.0.0, SVG Export Plug-In . SVG Version: 6.00 Build 0)  -->
<svg version="1.1" id="Layer_2_00000181077330884249079910000017319704533760051866_"
	 xmlns="http://www.w3.org/2000/svg" xmlns:xlink="http://www.w3.org/1999/xlink" x="0px" y="0px" viewBox="0 0 263.2 83.3"
	 style="enable-background:new 0 0 263.2 83.3;" xml:space="preserve">
<style type="text/css">
	.st0{fill:none;stroke:#5E4EA0;stroke-width:7;stroke-miterlimit:10;}
	.st1{fill:#2B3990;}
	.st2{fill:#2E3192;}
</style>
<g>
	<path class="st0" d="M130.1,79.8h2.9l99.7,0c60.9-43.5,0-76.3,0-76.3l-99.7,0h-2.7H30.6c0,0-61,32.8,0,76.3h99.7"/>
	<path class="st1" d="M37,60.8H15.6v-9.4h3V30.8h-3.1v-9.4H37v9.4h-3.1v20.5H37C37,51.3,37,60.8,37,60.8z M61.5,60.8H41.1v-9.4H43
		l-8.6-11.2l10-9.3h-3.2v-9.4h19.4v9.4h-3.1l-8,7.5l10,13.1h2V60.8L61.5,60.8z"/>
	<path class="st1" d="M74,60.8h-8.9V48.1H74c1.1,3.4,3.1,5.2,6,5.2c2.1,0,3.2-0.8,3.2-2.5c0-0.9-0.4-1.6-1.1-2.2
		c-0.8-0.6-2.5-1.5-5-2.7c-3.2-1.5-5.6-2.7-7.1-3.8c-1.4-1-2.6-2.3-3.6-4c-1-1.7-1.5-3.5-1.5-5.6c0-3.7,1.2-6.5,3.6-8.6
		c2.4-2.1,5.3-3.1,8.7-3.1s6.4,1,8.8,3v-2.4h8.9v11.2H86c-1.1-3.1-3-4.6-5.7-4.6c-1.9,0-2.9,0.8-2.9,2.5c0,0.8,0.3,1.4,0.8,1.8
		c0.5,0.4,2.2,1.3,5.1,2.8c3.9,1.9,6.5,3.3,7.8,4.2c0.7,0.4,1.3,1,2,1.8c0.7,0.8,1.3,1.6,1.7,2.4c1,1.8,1.6,3.8,1.6,6
		c0,3.3-1.2,6.1-3.7,8.4c-2.4,2.3-5.6,3.5-9.3,3.5c-3.5,0-6.6-1-9.4-3.1L74,60.8L74,60.8z"/>
	<path class="st1" d="M103.5,30.8h-3v-9.4h20.2v9.4h-1.9v13.3c0,3.2,0.3,5.3,0.9,6.5c0.6,1.1,1.7,1.7,3.3,1.7c1.3,0,2.2-0.5,2.8-1.4
		c0.6-0.9,0.9-2.9,0.9-5.8V30.8h-2v-9.4h14.8v9.4h-3.1v14.3c0,3.6-0.5,6.6-1.6,9c-1.1,2.3-2.8,4.1-5.3,5.4s-5.5,2-9.1,2
		c-2.9,0-5.4-0.3-7.7-1c-2.3-0.7-4.1-1.7-5.4-3.1c-1.3-1.4-2.3-3-2.9-5c-0.6-1.9-1-4.8-1-8.8L103.5,30.8L103.5,30.8z"/>
	<path class="st2" d="M145.3,66.2H138c-2,0-3.7-0.5-3.7-1.2v-4.9c0-0.7,1.6-1.2,3.7-1.2h5.2h7.2h17.9c2,0,3.7,0.5,3.7,1.2v4.9
		c0,0.7-1.6,1.2-3.7,1.2h-15.7"/>
	<path class="st2" d="M169.6,47.4l10.2-0.8c0.2,4.2,2.1,6.3,5.9,6.3c1.6,0,2.8-0.4,3.6-1.3c0.8-0.9,1.2-2,1.2-3.2
		c0-3.2-2.1-4.9-6.4-5v-6.4c1.3,0,2.6-0.4,3.7-1.2c1.1-0.8,1.7-1.9,1.7-3.4c0-1.2-0.4-2.2-1.1-2.9c-0.8-0.7-1.8-1.1-3.1-1.1
		c-2.7,0-4.1,1.5-4.4,4.5l-10.6-0.6c0.2-3.9,1.8-6.9,4.6-8.8c2.8-1.9,6.7-2.9,11.5-2.9c5.2,0,9.1,1.1,11.7,3.2
		c2.6,2.1,3.9,4.8,3.9,7.9c0,1.9-0.6,3.5-1.6,5c-1.1,1.5-2.6,2.5-4.4,3.1c2.4,0.5,4.2,1.6,5.5,3.3s2,3.7,2,6c0,3.8-1.6,6.8-4.7,8.9
		c-3.1,2.2-7.3,3.3-12.4,3.3s-9.2-1.1-12.1-3.4C171.3,55.5,169.8,52.1,169.6,47.4L169.6,47.4z"/>
	<path class="st2" d="M213,43.6v-7 M213,36.6v-5.8h-3.1v-9.4h18.9c4.3,0,7.8,0.3,10.5,0.8c2.7,0.5,5.3,1.6,7.7,3.3
		c2.4,1.7,4.3,3.9,5.7,6.7c0.7,1.4,1.2,2.8,1.6,4.4s0.5,3.2,0.5,4.9c0,3.4-0.7,6.5-2.2,9.4c-1.4,2.8-3.3,4.9-5.5,6.4
		c-2.1,1.5-4.5,2.5-7.1,2.9c-2.6,0.5-6.5,0.7-11.8,0.7h-18.3v-9.4h3.1v-7.8 M228.2,30.8v20.5h1.4c3.6,0,5.9-1,7-2.9
		c1.1-1.9,1.6-4.3,1.6-7.2c0-1.7-0.2-3.5-0.7-5.2c-0.5-1.7-1.3-3-2.5-3.9c-1.2-0.9-3.3-1.4-6.3-1.4
		C228.8,30.8,228.2,30.8,228.2,30.8z"/>
</g>
</svg>
